<?xml version="1.0" encoding="iso-8859-1"?>
<!-- Generator: Adobe Illustrator 19.0.0, SVG Export Plug-In . SVG Version: 6.00 Build 0)  -->
<svg version="1.1" id="Capa_1" xmlns="http://www.w3.org/2000/svg" xmlns:xlink="http://www.w3.org/1999/xlink" x="0px" y="0px"
	 viewBox="0 0 512 512" style="enable-background:new 0 0 512 512;" xml:space="preserve">
<path style="fill:#48BD80;" d="M403.476,164.959c0.911-0.881,1.822-1.782,2.722-2.682c39.084-39.084,58.1-83.442,42.467-99.076
	c-15.634-15.644-59.992,3.373-99.086,42.457c-0.911,0.911-1.802,1.822-2.682,2.732c-2.272-49.903-19.217-98.375-39.774-98.375
	c-22.109,0-40.035,54.527-40.035,109.795c0,13.442,1.051,26.263,2.973,37.973l84.123,84.033c11.68,1.902,24.461,2.963,37.863,2.963
	c55.278,0,109.945-17.926,109.945-40.035C501.991,184.176,453.369,167.231,403.476,164.959z"/>
<path style="fill:#FE9A3D;" d="M331.714,321.335C162.177,467.511,45.776,522.539,16.78,495.225
	c-27.314-28.995,27.714-145.386,173.891-314.933c30.998-35.951,75.082-32.996,113.078-4.864
	c11.627,8.58,23.576,20.316,32.708,32.678C364.632,246.055,367.79,290.235,331.714,321.335z"/>
<path d="M207.396,340.351c-3.913,3.913-3.913,10.249,0,14.162c3.903,3.903,10.239,3.903,14.152,0c3.903-3.913,3.903-10.249,0-14.162
	C217.635,336.448,211.299,336.448,207.396,340.351z"/>
<path d="M475.044,168.651c-14.158-5.459-31.674-9.572-50.007-11.874c14.184-16.204,25.373-33.165,32.114-48.889
	c9.743-22.73,9.243-41.114-1.405-51.763c-10.65-10.656-29.036-11.16-51.768-1.418c-15.727,6.74-32.69,17.929-48.9,32.117
	c-2.302-18.318-6.416-35.809-11.873-49.94C331.431,6.404,317.085,0.006,307.122,0.006c-10.646,0-25.837,7.087-37.747,40.851
	c-9.786,27.745-14.73,66.895-11.097,103.916c-28.743-4.394-55.032,5.607-75.187,28.983
	C113.759,254.173,60.76,327.488,29.826,385.773C-1.236,444.301-8.077,483.434,9.495,502.087c0.136,0.146,0.277,0.286,0.422,0.423
	c25.717,24.224,84.895-3.654,116.318-20.331c58.29-30.936,131.602-83.934,212.013-153.265c23.42-20.189,33.413-46.528,28.964-75.324
	c37.116,3.634,76.255-1.38,103.859-11.099C504.899,230.582,512,215.39,512,204.742C512,194.778,505.588,180.427,475.044,168.651z
	 M411.862,73.105c13.845-5.934,25.512-7.044,29.726-2.827c4.212,4.212,3.099,15.879-2.836,29.724
	c-16.504,38.502-62.636,82.829-98.729,96.396c-3.561-4.368-7.435-8.655-11.585-12.798c-4.207-4.214-8.556-8.142-12.983-11.745
	C329.013,135.792,373.296,89.633,411.862,73.105z M307.121,20.023c2.805,0,10.054,5.03,17.408,24.072
	c6.381,16.52,10.746,38.372,12.138,60.523c-17.119,18.245-30.425,37.689-38.003,55.35c-6.444-3.898-12.989-7.114-19.585-9.631
	c-5.129-38.214,0.233-75.468,8.388-100.289C293.529,31.601,301.134,20.023,307.121,20.023z M325.177,313.754
	c-79.298,68.371-151.335,120.497-208.326,150.743c-38.136,20.241-63.739,27.527-78.837,27.525c-6.765,0-11.424-1.463-14.151-3.88
	c-7.812-8.813-5.664-37.762,23.645-92.984c30.245-56.987,82.371-129.027,150.744-208.33c33.005-38.28,80.434-24.73,116.032,10.926
	C350.237,233.645,363.184,280.991,325.177,313.754z M464.424,223.611c-26.92,9.478-66.368,14.047-102.808,9.178
	c-2.53-6.603-5.765-13.157-9.683-19.611c17.661-7.581,37.096-20.885,55.317-37.99c22.163,1.393,44.04,5.759,60.594,12.142
	c19.095,7.361,24.14,14.611,24.14,17.414C491.983,207.912,486.223,215.935,464.424,223.611z"/>
<path d="M251.575,203.671c-3.908-3.906-10.246-3.907-14.154,0c-3.908,3.908-3.909,10.246,0,14.155l28.305,28.305
	c3.909,3.907,10.246,3.908,14.154,0s3.909-10.246,0-14.155L251.575,203.671z"/>
<path d="M237.423,274.442c-3.908-3.907-10.246-3.907-14.155,0c-3.908,3.908-3.908,10.246,0,14.155l28.305,28.305
	c3.909,3.908,10.246,3.908,14.155,0c3.908-3.908,3.908-10.246,0-14.155L237.423,274.442z"/>
<path d="M166.651,288.595c-3.908-3.907-10.246-3.907-14.155,0c-3.908,3.908-3.908,10.246,0,14.155l28.305,28.305
	c3.909,3.908,10.246,3.908,14.155,0c3.908-3.908,3.908-10.246,0-14.155L166.651,288.595z"/>
<path d="M152.487,359.366c-3.908-3.907-10.246-3.906-14.154,0.002c-3.908,3.909-3.906,10.247,0.002,14.155l28.315,28.305
	c3.908,3.907,10.246,3.907,14.154-0.002c3.908-3.909,3.906-10.247-0.002-14.155L152.487,359.366z"/>
<path d="M95.87,387.671c-3.908-3.907-10.246-3.907-14.155,0c-3.908,3.908-3.908,10.246,0,14.155l28.315,28.315
	c3.909,3.908,10.246,3.908,14.155,0c3.908-3.908,3.908-10.246,0-14.155L95.87,387.671z"/>
<g>
</g>
<g>
</g>
<g>
</g>
<g>
</g>
<g>
</g>
<g>
</g>
<g>
</g>
<g>
</g>
<g>
</g>
<g>
</g>
<g>
</g>
<g>
</g>
<g>
</g>
<g>
</g>
<g>
</g>
</svg>
